<svg width="514" height="150" viewBox="0 0 514 150" fill="none" xmlns="http://www.w3.org/2000/svg">
<g clip-path="url(#clip0_304_155)">
<rect width="513.158" height="150" fill="white"/>
<rect x="93" y="13" width="69.1964" height="125" rx="34.5982" fill="white"/>
<rect x="98.5" y="18.5" width="58.1964" height="114" rx="29.0982" stroke="#EB9AC1" stroke-opacity="0.88" stroke-width="11"/>
<rect x="88.3883" y="22.7782" width="58.1964" height="114" rx="29.0982" transform="rotate(45 88.3883 22.7782)" fill="white" stroke="#AC80D9" stroke-width="11"/>
<rect x="46.7782" y="63.9293" width="58.1964" height="114" rx="29.0982" transform="rotate(-45 46.7782 63.9293)" fill="white" stroke="#58327F" stroke-width="11"/>
<path d="M244.139 45.47L230.639 89H222.509L213.599 60.53C213.459 60.13 213.319 59.69 213.179 59.21C213.039 58.73 212.909 58.22 212.789 57.68C212.669 58.22 212.539 58.73 212.399 59.21C212.259 59.69 212.119 60.13 211.979 60.53L202.979 89H194.819L181.349 45.47H188.909C189.689 45.47 190.339 45.65 190.859 46.01C191.399 46.37 191.749 46.85 191.909 47.45L198.659 71.99C198.819 72.67 198.979 73.41 199.139 74.21C199.319 74.99 199.489 75.82 199.649 76.7C199.829 75.8 200.019 74.96 200.219 74.18C200.419 73.4 200.639 72.67 200.879 71.99L208.739 47.45C208.899 46.95 209.239 46.5 209.759 46.1C210.299 45.68 210.949 45.47 211.709 45.47H214.349C215.129 45.47 215.759 45.66 216.239 46.04C216.739 46.4 217.109 46.87 217.349 47.45L225.179 71.99C225.419 72.63 225.639 73.33 225.839 74.09C226.039 74.83 226.229 75.62 226.409 76.46C226.569 75.62 226.719 74.83 226.859 74.09C227.019 73.33 227.179 72.63 227.339 71.99L234.089 47.45C234.229 46.93 234.569 46.47 235.109 46.07C235.649 45.67 236.299 45.47 237.059 45.47H244.139ZM259.837 57.59C262.157 57.59 264.267 57.96 266.167 58.7C268.067 59.44 269.697 60.5 271.057 61.88C272.417 63.24 273.467 64.9 274.207 66.86C274.947 68.82 275.317 71.03 275.317 73.49C275.317 75.95 274.947 78.17 274.207 80.15C273.467 82.11 272.417 83.78 271.057 85.16C269.697 86.54 268.067 87.6 266.167 88.34C264.267 89.08 262.157 89.45 259.837 89.45C257.497 89.45 255.367 89.08 253.447 88.34C251.547 87.6 249.917 86.54 248.557 85.16C247.197 83.78 246.137 82.11 245.377 80.15C244.637 78.17 244.267 75.95 244.267 73.49C244.267 71.03 244.637 68.82 245.377 66.86C246.137 64.9 247.197 63.24 248.557 61.88C249.917 60.5 251.547 59.44 253.447 58.7C255.367 57.96 257.497 57.59 259.837 57.59ZM259.837 83.24C262.197 83.24 263.947 82.43 265.087 80.81C266.227 79.17 266.797 76.74 266.797 73.52C266.797 70.32 266.227 67.91 265.087 66.29C263.947 64.65 262.197 63.83 259.837 63.83C257.417 63.83 255.637 64.65 254.497 66.29C253.357 67.91 252.787 70.32 252.787 73.52C252.787 76.74 253.357 79.17 254.497 80.81C255.637 82.43 257.417 83.24 259.837 83.24ZM290.086 63.17C291.066 61.41 292.196 60.02 293.476 59C294.756 57.98 296.256 57.47 297.976 57.47C299.376 57.47 300.516 57.8 301.396 58.46L300.856 64.58C300.756 64.98 300.596 65.26 300.376 65.42C300.176 65.56 299.896 65.63 299.536 65.63C299.216 65.63 298.756 65.59 298.156 65.51C297.556 65.41 296.996 65.36 296.476 65.36C295.716 65.36 295.036 65.47 294.436 65.69C293.856 65.91 293.336 66.22 292.876 66.62C292.416 67.02 291.996 67.51 291.616 68.09C291.256 68.67 290.916 69.33 290.596 70.07V89H282.316V58.07H287.206C288.046 58.07 288.626 58.22 288.946 58.52C289.266 58.82 289.496 59.34 289.636 60.08L290.086 63.17ZM315.013 44.27V69.65H316.393C316.913 69.65 317.323 69.58 317.623 69.44C317.923 69.28 318.223 69 318.523 68.6L325.363 59.48C325.703 59.02 326.083 58.67 326.503 58.43C326.943 58.19 327.493 58.07 328.153 58.07H335.713L326.833 69.35C326.133 70.29 325.323 71.03 324.403 71.57C324.863 71.89 325.263 72.26 325.603 72.68C325.943 73.1 326.273 73.57 326.593 74.09L336.163 89H328.723C328.083 89 327.533 88.9 327.073 88.7C326.613 88.48 326.233 88.1 325.933 87.56L318.973 76.19C318.693 75.71 318.403 75.4 318.103 75.26C317.803 75.12 317.353 75.05 316.753 75.05H315.013V89H306.733V44.27H315.013ZM362.204 64.97C361.964 65.29 361.724 65.54 361.484 65.72C361.244 65.88 360.904 65.96 360.464 65.96C360.064 65.96 359.674 65.85 359.294 65.63C358.934 65.39 358.514 65.14 358.034 64.88C357.554 64.6 356.984 64.35 356.324 64.13C355.664 63.89 354.844 63.77 353.864 63.77C352.624 63.77 351.544 64 350.624 64.46C349.724 64.9 348.974 65.54 348.374 66.38C347.774 67.22 347.324 68.24 347.024 69.44C346.744 70.64 346.604 71.99 346.604 73.49C346.604 76.65 347.234 79.07 348.494 80.75C349.774 82.43 351.514 83.27 353.714 83.27C354.474 83.27 355.124 83.21 355.664 83.09C356.224 82.95 356.704 82.78 357.104 82.58C357.524 82.38 357.884 82.16 358.184 81.92C358.484 81.68 358.764 81.46 359.024 81.26C359.304 81.06 359.574 80.9 359.834 80.78C360.114 80.64 360.424 80.57 360.764 80.57C361.404 80.57 361.904 80.81 362.264 81.29L364.634 84.29C363.754 85.31 362.814 86.16 361.814 86.84C360.814 87.5 359.774 88.03 358.694 88.43C357.634 88.81 356.554 89.07 355.454 89.21C354.354 89.37 353.264 89.45 352.184 89.45C350.284 89.45 348.484 89.1 346.784 88.4C345.084 87.68 343.594 86.64 342.314 85.28C341.034 83.92 340.014 82.25 339.254 80.27C338.514 78.29 338.144 76.03 338.144 73.49C338.144 71.23 338.474 69.13 339.134 67.19C339.794 65.25 340.764 63.57 342.044 62.15C343.324 60.73 344.904 59.62 346.784 58.82C348.684 58 350.874 57.59 353.354 57.59C355.714 57.59 357.784 57.97 359.564 58.73C361.344 59.49 362.944 60.59 364.364 62.03L362.204 64.97ZM378.906 61.1C379.486 60.58 380.086 60.11 380.706 59.69C381.346 59.25 382.016 58.88 382.716 58.58C383.436 58.26 384.196 58.02 384.996 57.86C385.816 57.68 386.696 57.59 387.636 57.59C389.316 57.59 390.806 57.88 392.106 58.46C393.406 59.04 394.496 59.85 395.376 60.89C396.276 61.93 396.946 63.17 397.386 64.61C397.846 66.05 398.076 67.63 398.076 69.35V89H389.826V69.35C389.826 67.63 389.426 66.3 388.626 65.36C387.826 64.4 386.646 63.92 385.086 63.92C383.926 63.92 382.836 64.17 381.816 64.67C380.796 65.17 379.826 65.87 378.906 66.77V89H370.626V44.27H378.906V61.1ZM422.639 76.07C420.619 76.17 418.939 76.35 417.599 76.61C416.259 76.85 415.189 77.17 414.389 77.57C413.609 77.97 413.049 78.43 412.709 78.95C412.389 79.45 412.229 80 412.229 80.6C412.229 81.8 412.559 82.65 413.219 83.15C413.899 83.65 414.839 83.9 416.039 83.9C417.419 83.9 418.609 83.66 419.609 83.18C420.629 82.68 421.639 81.91 422.639 80.87V76.07ZM405.779 62.36C407.599 60.72 409.609 59.5 411.809 58.7C414.009 57.88 416.389 57.47 418.949 57.47C420.789 57.47 422.429 57.77 423.869 58.37C425.329 58.97 426.559 59.81 427.559 60.89C428.579 61.95 429.359 63.22 429.899 64.7C430.439 66.18 430.709 67.8 430.709 69.56V89H426.929C426.149 89 425.549 88.89 425.129 88.67C424.729 88.45 424.399 87.99 424.139 87.29L423.479 85.31C422.699 85.99 421.939 86.59 421.199 87.11C420.479 87.63 419.729 88.07 418.949 88.43C418.169 88.77 417.329 89.03 416.429 89.21C415.549 89.39 414.559 89.48 413.459 89.48C412.099 89.48 410.859 89.3 409.739 88.94C408.619 88.58 407.649 88.05 406.829 87.35C406.029 86.63 405.409 85.74 404.969 84.68C404.529 83.62 404.309 82.4 404.309 81.02C404.309 79.88 404.599 78.74 405.179 77.6C405.759 76.46 406.749 75.43 408.149 74.51C409.569 73.57 411.449 72.8 413.789 72.2C416.149 71.58 419.099 71.23 422.639 71.15V69.56C422.639 67.62 422.229 66.2 421.409 65.3C420.589 64.38 419.409 63.92 417.869 63.92C416.729 63.92 415.779 64.06 415.019 64.34C414.259 64.6 413.589 64.89 413.009 65.21C412.449 65.51 411.919 65.8 411.419 66.08C410.919 66.34 410.339 66.47 409.679 66.47C409.099 66.47 408.609 66.33 408.209 66.05C407.829 65.75 407.509 65.4 407.249 65L405.779 62.36ZM447.492 58.07V89H439.212V58.07H447.492ZM448.482 49.28C448.482 49.98 448.342 50.63 448.062 51.23C447.782 51.83 447.402 52.36 446.922 52.82C446.462 53.28 445.912 53.64 445.272 53.9C444.652 54.16 443.982 54.29 443.262 54.29C442.582 54.29 441.932 54.16 441.312 53.9C440.712 53.64 440.182 53.28 439.722 52.82C439.262 52.36 438.892 51.83 438.612 51.23C438.352 50.63 438.222 49.98 438.222 49.28C438.222 48.58 438.352 47.93 438.612 47.33C438.892 46.71 439.262 46.17 439.722 45.71C440.182 45.25 440.712 44.89 441.312 44.63C441.932 44.37 442.582 44.24 443.262 44.24C443.982 44.24 444.652 44.37 445.272 44.63C445.912 44.89 446.462 45.25 446.922 45.71C447.402 46.17 447.782 46.71 448.062 47.33C448.342 47.93 448.482 48.58 448.482 49.28ZM464.038 61.67C464.658 61.07 465.298 60.52 465.958 60.02C466.638 59.52 467.348 59.09 468.088 58.73C468.848 58.37 469.658 58.09 470.518 57.89C471.398 57.69 472.348 57.59 473.368 57.59C475.048 57.59 476.538 57.88 477.838 58.46C479.138 59.04 480.228 59.85 481.108 60.89C482.008 61.93 482.678 63.17 483.118 64.61C483.578 66.05 483.808 67.63 483.808 69.35V89H475.558V69.35C475.558 67.63 475.158 66.3 474.358 65.36C473.558 64.4 472.378 63.92 470.818 63.92C469.658 63.92 468.568 64.17 467.548 64.67C466.528 65.17 465.558 65.87 464.638 66.77V89H456.358V58.07H461.458C462.498 58.07 463.188 58.55 463.528 59.51L464.038 61.67Z" fill="#58327F"/>
<path d="M266.498 112.144C266.631 112.144 266.743 112.192 266.834 112.288L267.786 113.304C267.317 113.901 266.733 114.355 266.034 114.664C265.341 114.973 264.514 115.128 263.554 115.128C262.685 115.128 261.903 114.981 261.21 114.688C260.517 114.389 259.927 113.976 259.442 113.448C258.957 112.92 258.583 112.293 258.322 111.568C258.061 110.843 257.93 110.051 257.93 109.192C257.93 108.616 257.991 108.069 258.114 107.552C258.242 107.029 258.426 106.549 258.666 106.112C258.906 105.675 259.194 105.28 259.53 104.928C259.871 104.576 260.255 104.277 260.682 104.032C261.109 103.781 261.573 103.592 262.074 103.464C262.581 103.331 263.119 103.264 263.69 103.264C264.117 103.264 264.519 103.301 264.898 103.376C265.282 103.451 265.639 103.555 265.97 103.688C266.301 103.821 266.605 103.984 266.882 104.176C267.165 104.363 267.418 104.568 267.642 104.792L266.834 105.896C266.786 105.965 266.725 106.027 266.65 106.08C266.575 106.133 266.474 106.16 266.346 106.16C266.218 106.16 266.087 106.115 265.954 106.024C265.826 105.933 265.666 105.832 265.474 105.72C265.287 105.608 265.05 105.507 264.762 105.416C264.479 105.325 264.119 105.28 263.682 105.28C263.197 105.28 262.751 105.368 262.346 105.544C261.941 105.72 261.591 105.976 261.298 106.312C261.01 106.643 260.786 107.051 260.626 107.536C260.466 108.021 260.386 108.573 260.386 109.192C260.386 109.816 260.471 110.373 260.642 110.864C260.818 111.349 261.055 111.76 261.354 112.096C261.658 112.432 262.01 112.688 262.41 112.864C262.815 113.035 263.247 113.12 263.706 113.12C263.978 113.12 264.223 113.107 264.442 113.08C264.666 113.053 264.871 113.008 265.058 112.944C265.25 112.88 265.429 112.797 265.594 112.696C265.765 112.595 265.935 112.467 266.106 112.312C266.165 112.264 266.226 112.224 266.29 112.192C266.354 112.16 266.423 112.144 266.498 112.144ZM280.907 109.192C280.907 110.04 280.763 110.827 280.475 111.552C280.192 112.277 279.79 112.904 279.267 113.432C278.75 113.96 278.126 114.376 277.395 114.68C276.664 114.979 275.854 115.128 274.963 115.128C274.072 115.128 273.262 114.979 272.531 114.68C271.8 114.376 271.174 113.96 270.651 113.432C270.128 112.904 269.723 112.277 269.435 111.552C269.152 110.827 269.011 110.04 269.011 109.192C269.011 108.344 269.152 107.56 269.435 106.84C269.723 106.115 270.128 105.488 270.651 104.96C271.174 104.432 271.8 104.019 272.531 103.72C273.262 103.416 274.072 103.264 274.963 103.264C275.854 103.264 276.664 103.416 277.395 103.72C278.126 104.019 278.75 104.435 279.267 104.968C279.79 105.496 280.192 106.123 280.475 106.848C280.763 107.568 280.907 108.349 280.907 109.192ZM278.451 109.192C278.451 108.584 278.371 108.04 278.211 107.56C278.051 107.075 277.819 106.664 277.515 106.328C277.216 105.987 276.851 105.728 276.419 105.552C275.992 105.371 275.507 105.28 274.963 105.28C274.419 105.28 273.931 105.371 273.499 105.552C273.067 105.728 272.699 105.987 272.395 106.328C272.096 106.664 271.867 107.075 271.707 107.56C271.547 108.04 271.467 108.584 271.467 109.192C271.467 109.805 271.547 110.355 271.707 110.84C271.867 111.32 272.096 111.728 272.395 112.064C272.699 112.4 273.067 112.659 273.499 112.84C273.931 113.016 274.419 113.104 274.963 113.104C275.507 113.104 275.992 113.016 276.419 112.84C276.851 112.659 277.216 112.4 277.515 112.064C277.819 111.728 278.051 111.32 278.211 110.84C278.371 110.355 278.451 109.805 278.451 109.192ZM293.404 103.392V115H292.164C291.977 115 291.82 114.971 291.692 114.912C291.564 114.848 291.438 114.741 291.316 114.592L285.532 107.232C285.548 107.419 285.558 107.603 285.564 107.784C285.574 107.965 285.58 108.133 285.58 108.288V115H283.46V103.392H284.724C284.825 103.392 284.91 103.397 284.98 103.408C285.054 103.413 285.121 103.432 285.18 103.464C285.238 103.491 285.294 103.528 285.348 103.576C285.401 103.624 285.46 103.688 285.524 103.768L291.348 111.16C291.326 110.957 291.31 110.763 291.3 110.576C291.289 110.384 291.284 110.203 291.284 110.032V103.392H293.404ZM306.579 103.392V115H305.339C305.152 115 304.995 114.971 304.867 114.912C304.739 114.848 304.613 114.741 304.491 114.592L298.707 107.232C298.723 107.419 298.733 107.603 298.739 107.784C298.749 107.965 298.755 108.133 298.755 108.288V115H296.635V103.392H297.899C298 103.392 298.085 103.397 298.155 103.408C298.229 103.413 298.296 103.432 298.355 103.464C298.413 103.491 298.469 103.528 298.523 103.576C298.576 103.624 298.635 103.688 298.699 103.768L304.523 111.16C304.501 110.957 304.485 110.763 304.475 110.576C304.464 110.384 304.459 110.203 304.459 110.032V103.392H306.579ZM312.226 105.272V108.256H316.098V110.072H312.226V113.12H317.202V115H309.81V103.392H317.202V105.272H312.226ZM327.467 112.144C327.6 112.144 327.712 112.192 327.803 112.288L328.755 113.304C328.286 113.901 327.702 114.355 327.003 114.664C326.31 114.973 325.483 115.128 324.523 115.128C323.654 115.128 322.872 114.981 322.179 114.688C321.486 114.389 320.896 113.976 320.411 113.448C319.926 112.92 319.552 112.293 319.291 111.568C319.03 110.843 318.899 110.051 318.899 109.192C318.899 108.616 318.96 108.069 319.083 107.552C319.211 107.029 319.395 106.549 319.635 106.112C319.875 105.675 320.163 105.28 320.499 104.928C320.84 104.576 321.224 104.277 321.651 104.032C322.078 103.781 322.542 103.592 323.043 103.464C323.55 103.331 324.088 103.264 324.659 103.264C325.086 103.264 325.488 103.301 325.867 103.376C326.251 103.451 326.608 103.555 326.939 103.688C327.27 103.821 327.574 103.984 327.851 104.176C328.134 104.363 328.387 104.568 328.611 104.792L327.803 105.896C327.755 105.965 327.694 106.027 327.619 106.08C327.544 106.133 327.443 106.16 327.315 106.16C327.187 106.16 327.056 106.115 326.923 106.024C326.795 105.933 326.635 105.832 326.443 105.72C326.256 105.608 326.019 105.507 325.731 105.416C325.448 105.325 325.088 105.28 324.651 105.28C324.166 105.28 323.72 105.368 323.315 105.544C322.91 105.72 322.56 105.976 322.267 106.312C321.979 106.643 321.755 107.051 321.595 107.536C321.435 108.021 321.355 108.573 321.355 109.192C321.355 109.816 321.44 110.373 321.611 110.864C321.787 111.349 322.024 111.76 322.323 112.096C322.627 112.432 322.979 112.688 323.379 112.864C323.784 113.035 324.216 113.12 324.675 113.12C324.947 113.12 325.192 113.107 325.411 113.08C325.635 113.053 325.84 113.008 326.027 112.944C326.219 112.88 326.398 112.797 326.563 112.696C326.734 112.595 326.904 112.467 327.075 112.312C327.134 112.264 327.195 112.224 327.259 112.192C327.323 112.16 327.392 112.144 327.467 112.144ZM339.126 105.328H335.734V115H333.326V105.328H329.934V103.392H339.126V105.328ZM343.782 115H341.366V103.392H343.782V115ZM356.954 103.392V115H355.714C355.527 115 355.37 114.971 355.242 114.912C355.114 114.848 354.988 114.741 354.866 114.592L349.082 107.232C349.098 107.419 349.108 107.603 349.114 107.784C349.124 107.965 349.13 108.133 349.13 108.288V115H347.01V103.392H348.274C348.375 103.392 348.46 103.397 348.53 103.408C348.604 103.413 348.671 103.432 348.73 103.464C348.788 103.491 348.844 103.528 348.898 103.576C348.951 103.624 349.01 103.688 349.074 103.768L354.898 111.16C354.876 110.957 354.86 110.763 354.85 110.576C354.839 110.384 354.834 110.203 354.834 110.032V103.392H356.954ZM365.833 109.088H369.817V113.88C369.225 114.312 368.593 114.629 367.921 114.832C367.254 115.029 366.547 115.128 365.801 115.128C364.846 115.128 363.982 114.981 363.209 114.688C362.435 114.389 361.774 113.976 361.225 113.448C360.675 112.92 360.251 112.293 359.953 111.568C359.654 110.843 359.505 110.051 359.505 109.192C359.505 108.323 359.646 107.525 359.929 106.8C360.217 106.075 360.625 105.451 361.153 104.928C361.681 104.405 362.318 103.997 363.065 103.704C363.817 103.411 364.657 103.264 365.585 103.264C366.065 103.264 366.513 103.304 366.929 103.384C367.345 103.459 367.729 103.565 368.081 103.704C368.433 103.837 368.755 103.997 369.049 104.184C369.342 104.371 369.609 104.576 369.849 104.8L369.153 105.872C369.046 106.043 368.907 106.147 368.737 106.184C368.566 106.221 368.379 106.179 368.177 106.056C367.985 105.939 367.795 105.835 367.609 105.744C367.427 105.648 367.233 105.565 367.025 105.496C366.817 105.427 366.59 105.373 366.345 105.336C366.099 105.299 365.817 105.28 365.497 105.28C364.958 105.28 364.47 105.373 364.033 105.56C363.595 105.747 363.222 106.011 362.913 106.352C362.609 106.693 362.374 107.104 362.209 107.584C362.043 108.064 361.961 108.6 361.961 109.192C361.961 109.832 362.051 110.405 362.233 110.912C362.414 111.413 362.67 111.837 363.001 112.184C363.331 112.531 363.726 112.795 364.185 112.976C364.649 113.157 365.163 113.248 365.729 113.248C366.113 113.248 366.454 113.211 366.753 113.136C367.057 113.056 367.353 112.949 367.641 112.816V110.864H366.329C366.174 110.864 366.051 110.824 365.961 110.744C365.875 110.659 365.833 110.552 365.833 110.424V109.088ZM381.767 110.536V115H379.367V110.536L375.151 103.392H377.263C377.471 103.392 377.636 103.443 377.759 103.544C377.887 103.64 377.988 103.765 378.063 103.92L379.967 107.576C380.095 107.821 380.21 108.051 380.311 108.264C380.418 108.477 380.511 108.691 380.591 108.904C380.666 108.691 380.751 108.477 380.847 108.264C380.948 108.045 381.06 107.816 381.183 107.576L383.071 103.92C383.135 103.792 383.231 103.672 383.359 103.56C383.487 103.448 383.652 103.392 383.855 103.392H385.983L381.767 110.536ZM398.363 109.192C398.363 110.04 398.219 110.827 397.931 111.552C397.649 112.277 397.246 112.904 396.723 113.432C396.206 113.96 395.582 114.376 394.851 114.68C394.121 114.979 393.31 115.128 392.419 115.128C391.529 115.128 390.718 114.979 389.987 114.68C389.257 114.376 388.63 113.96 388.107 113.432C387.585 112.904 387.179 112.277 386.891 111.552C386.609 110.827 386.467 110.04 386.467 109.192C386.467 108.344 386.609 107.56 386.891 106.84C387.179 106.115 387.585 105.488 388.107 104.96C388.63 104.432 389.257 104.019 389.987 103.72C390.718 103.416 391.529 103.264 392.419 103.264C393.31 103.264 394.121 103.416 394.851 103.72C395.582 104.019 396.206 104.435 396.723 104.968C397.246 105.496 397.649 106.123 397.931 106.848C398.219 107.568 398.363 108.349 398.363 109.192ZM395.907 109.192C395.907 108.584 395.827 108.04 395.667 107.56C395.507 107.075 395.275 106.664 394.971 106.328C394.673 105.987 394.307 105.728 393.875 105.552C393.449 105.371 392.963 105.28 392.419 105.28C391.875 105.28 391.387 105.371 390.955 105.552C390.523 105.728 390.155 105.987 389.851 106.328C389.553 106.664 389.323 107.075 389.163 107.56C389.003 108.04 388.923 108.584 388.923 109.192C388.923 109.805 389.003 110.355 389.163 110.84C389.323 111.32 389.553 111.728 389.851 112.064C390.155 112.4 390.523 112.659 390.955 112.84C391.387 113.016 391.875 113.104 392.419 113.104C392.963 113.104 393.449 113.016 393.875 112.84C394.307 112.659 394.673 112.4 394.971 112.064C395.275 111.728 395.507 111.32 395.667 110.84C395.827 110.355 395.907 109.805 395.907 109.192ZM405.668 113.08C406.057 113.08 406.407 113.016 406.716 112.888C407.025 112.755 407.287 112.568 407.5 112.328C407.713 112.088 407.876 111.797 407.988 111.456C408.1 111.115 408.156 110.731 408.156 110.304V103.392H410.556V110.304C410.556 111.008 410.441 111.656 410.212 112.248C409.988 112.835 409.665 113.341 409.244 113.768C408.823 114.195 408.311 114.528 407.708 114.768C407.105 115.008 406.425 115.128 405.668 115.128C404.911 115.128 404.228 115.008 403.62 114.768C403.017 114.528 402.505 114.195 402.084 113.768C401.663 113.341 401.337 112.835 401.108 112.248C400.884 111.656 400.772 111.008 400.772 110.304V103.392H403.172V110.304C403.172 110.731 403.228 111.115 403.34 111.456C403.452 111.797 403.615 112.088 403.828 112.328C404.041 112.568 404.303 112.755 404.612 112.888C404.921 113.016 405.273 113.08 405.668 113.08Z" fill="#EB9AC1" fill-opacity="0.88"/>
</g>
<defs>
<clipPath id="clip0_304_155">
<rect width="513.158" height="150" fill="white"/>
</clipPath>
</defs>
</svg>
